<svg width="54" height="54" viewBox="0 0 54 54" fill="none" xmlns="http://www.w3.org/2000/svg">
<path d="M27 54C19.8392 54 12.9716 51.1554 7.90811 46.0919C2.84463 41.0284 -2.32148e-06 34.1608 -2.63449e-06 27C-2.9475e-06 19.8392 2.84463 12.9716 7.90811 7.90812C12.9716 2.84464 19.8392 1.49322e-06 27 1.18021e-06C34.1608 8.67197e-07 41.0284 2.84464 46.0919 7.90812C51.1554 12.9716 54 19.8392 54 27C54 34.1608 51.1554 41.0284 46.0919 46.0919C41.0284 51.1554 34.1608 54 27 54ZM38.8125 28.6875C39.2601 28.6875 39.6893 28.5097 40.0057 28.1932C40.3222 27.8768 40.5 27.4476 40.5 27C40.5 26.5524 40.3222 26.1232 40.0057 25.8068C39.6893 25.4903 39.2601 25.3125 38.8125 25.3125L19.2611 25.3125L26.5072 18.0698C26.8241 17.7529 27.0021 17.3231 27.0021 16.875C27.0021 16.4269 26.8241 15.9971 26.5072 15.6803C26.1904 15.3634 25.7606 15.1854 25.3125 15.1854C24.8644 15.1854 24.4346 15.3634 24.1177 15.6803L13.9927 25.8053C13.8356 25.962 13.7109 26.1482 13.6258 26.3532C13.5408 26.5583 13.497 26.778 13.497 27C13.497 27.222 13.5408 27.4417 13.6258 27.6468C13.7109 27.8518 13.8356 28.038 13.9927 28.1948L24.1177 38.3198C24.4346 38.6366 24.8644 38.8146 25.3125 38.8146C25.7606 38.8146 26.1904 38.6366 26.5072 38.3198C26.8241 38.0029 27.0021 37.5731 27.0021 37.125C27.0021 36.6769 26.8241 36.2471 26.5072 35.9302L19.2611 28.6875L38.8125 28.6875Z" fill="#F5FBF2"/>
</svg>
